<svg xmlns="http://www.w3.org/2000/svg" width="1200" height="760" viewBox="0 0 1200 760">
<style>
  text { font-family: Arial, sans-serif; fill: #222; }
  .main { font-size: 24px; font-weight: 700; }
  .title { font-size: 20px; font-weight: 700; }
  .axis { font-size: 14px; }
  .tick { font-size: 12px; }
  .legend { font-size: 13px; }
  .note { font-size: 12px; fill: #555; }
</style>
<text x="600.0" y="35" text-anchor="middle" class="main">Clumping Factor Comparison: 256 vs 512</text>
<text x="320.0" y="42" text-anchor="middle" class="title">GAS</text>
<rect x="70" y="70" width="500" height="520" fill="white" stroke="#333"/>
<line x1="70" y1="590.0" x2="570" y2="590.0" stroke="#ddd"/>
<text x="60" y="594.0" text-anchor="end" class="tick">0</text>
<line x1="70" y1="486.0" x2="570" y2="486.0" stroke="#ddd"/>
<text x="60" y="490.0" text-anchor="end" class="tick">3</text>
<line x1="70" y1="382.0" x2="570" y2="382.0" stroke="#ddd"/>
<text x="60" y="386.0" text-anchor="end" class="tick">6</text>
<line x1="70" y1="278.0" x2="570" y2="278.0" stroke="#ddd"/>
<text x="60" y="282.0" text-anchor="end" class="tick">9</text>
<line x1="70" y1="174.0" x2="570" y2="174.0" stroke="#ddd"/>
<text x="60" y="178.0" text-anchor="end" class="tick">12</text>
<line x1="70" y1="70.0" x2="570" y2="70.0" stroke="#ddd"/>
<text x="60" y="74.0" text-anchor="end" class="tick">15</text>
<line x1="70.0" y1="70" x2="70.0" y2="590" stroke="#eee"/>
<text x="70.0" y="612" text-anchor="middle" class="tick">-1</text>
<line x1="89.2" y1="70" x2="89.2" y2="590" stroke="#eee"/>
<text x="89.2" y="612" text-anchor="middle" class="tick">0</text>
<line x1="185.4" y1="70" x2="185.4" y2="590" stroke="#eee"/>
<text x="185.4" y="612" text-anchor="middle" class="tick">5</text>
<line x1="281.5" y1="70" x2="281.5" y2="590" stroke="#eee"/>
<text x="281.5" y="612" text-anchor="middle" class="tick">10</text>
<line x1="377.7" y1="70" x2="377.7" y2="590" stroke="#eee"/>
<text x="377.7" y="612" text-anchor="middle" class="tick">15</text>
<line x1="473.8" y1="70" x2="473.8" y2="590" stroke="#eee"/>
<text x="473.8" y="612" text-anchor="middle" class="tick">20</text>
<line x1="570.0" y1="70" x2="570.0" y2="590" stroke="#eee"/>
<text x="570.0" y="612" text-anchor="middle" class="tick">25</text>
<text x="320.0" y="638" text-anchor="middle" class="axis">Overdensity threshold</text>
<text x="18" y="330.0" transform="rotate(-90 18 330.0)" text-anchor="middle" class="axis">Clumping factor</text>
<polyline points="72.5,551.6 75.0,541.9 77.5,534.9 80.1,529.1 82.6,523.8 85.1,519.7 87.6,516.1 90.1,512.6 92.6,509.3 95.1,506.1 97.6,503.0 100.2,500.0 102.7,497.2 105.2,494.3 107.7,491.6 110.2,488.9 112.7,486.3 115.2,483.7 117.7,481.1 120.3,478.6 122.8,476.2 125.3,473.8 127.8,471.4 130.3,469.0 132.8,466.7 135.3,464.4 137.8,462.2 140.4,460.0 142.9,457.8 145.4,455.6 147.9,453.5 150.4,451.4 152.9,449.3 155.4,447.3 157.9,445.2 160.5,443.3 163.0,441.3 165.5,439.3 168.0,437.4 170.5,435.5 173.0,433.7 175.5,431.8 178.0,430.0 180.6,428.2 183.1,426.4 185.6,424.6 188.1,422.9 190.6,421.1 193.1,419.4 195.6,417.7 198.1,416.0 200.7,414.4 203.2,412.7 205.7,411.1 208.2,409.5 210.7,407.9 213.2,406.3 215.7,404.7 218.2,403.1 220.8,401.6 223.3,400.0 225.8,398.5 228.3,397.0 230.8,395.5 233.3,394.0 235.8,392.4 238.3,391.0 240.9,389.5 243.4,388.1 245.9,386.6 248.4,385.2 250.9,383.8 253.4,382.4 255.9,381.0 258.4,379.6 261.0,378.2 263.5,376.8 266.0,375.5 268.5,374.1 271.0,372.7 273.5,371.4 276.0,370.0 278.5,368.7 281.1,367.4 283.6,366.1 286.1,364.8 288.6,363.5 291.1,362.2 293.6,360.9 296.1,359.6 298.6,358.4 301.2,357.1 303.7,355.9 306.2,354.6 308.7,353.4 311.2,352.1 313.7,350.9 316.2,349.6 318.7,348.3 321.3,347.1 323.8,345.9 326.3,344.8 328.8,343.5 331.3,342.4 333.8,341.1 336.3,339.9 338.8,338.7 341.4,337.6 343.9,336.4 346.4,335.2 348.9,334.1 351.4,332.9 353.9,331.7 356.4,330.6 358.9,329.4 361.5,328.3 364.0,327.2 366.5,326.0 369.0,324.9 371.5,323.7 374.0,322.6 376.5,321.5 379.0,320.4 381.6,319.3 384.1,318.2 386.6,317.1 389.1,316.0 391.6,314.9 394.1,313.8 396.6,312.8 399.1,311.8 401.7,310.7 404.2,309.7 406.7,308.5 409.2,307.4 411.7,306.3 414.2,305.2 416.7,304.2 419.2,303.1 421.8,302.0 424.3,300.9 426.8,299.9 429.3,298.8 431.8,297.8 434.3,296.7 436.8,295.7 439.3,294.6 441.9,293.6 444.4,292.5 446.9,291.4 449.4,290.4 451.9,289.3 454.4,288.3 456.9,287.2 459.4,286.2 462.0,285.1 464.5,284.1 467.0,283.0 469.5,282.0 472.0,280.9 474.5,279.8 477.0,278.7 479.5,277.7 482.1,276.7 484.6,275.7 487.1,274.7 489.6,273.7 492.1,272.7 494.6,271.6 497.1,270.6 499.6,269.6 502.2,268.6 504.7,267.6 507.2,266.6 509.7,265.6 512.2,264.6 514.7,263.6 517.2,262.6 519.7,261.5 522.3,260.6 524.8,259.7 527.3,258.6 529.8,257.6 532.3,256.5 534.8,255.6 537.3,254.5 539.8,253.6 542.4,252.6 544.9,251.6 547.4,250.6 549.9,249.6 552.4,248.7 554.9,247.8 557.4,246.8 559.9,245.8 562.5,244.9 565.0,243.8 567.5,242.8 570.0,241.8" fill="none" stroke="#ff7f0e" stroke-width="2"/>
<polyline points="72.5,551.4 75.0,545.6 77.5,539.7 80.1,534.9 82.6,531.0 85.1,527.9 87.6,525.6 90.1,524.1 92.6,523.2 95.1,522.7 97.6,522.4 100.2,521.8 102.7,520.7 105.2,519.0 107.7,516.7 110.2,513.9 112.7,510.8 115.2,507.6 117.7,504.6 120.3,501.7 122.8,498.9 125.3,496.2 127.8,493.6 130.3,490.8 132.8,487.8 135.3,484.8 137.8,481.7 140.4,478.5 142.9,475.3 145.4,472.1 147.9,468.9 150.4,465.7 152.9,462.5 155.4,459.4 157.9,456.3 160.5,453.2 163.0,450.1 165.5,447.1 168.0,444.1 170.5,441.2 173.0,438.3 175.5,435.4 178.0,432.6 180.6,429.8 183.1,427.1 185.6,424.4 188.1,421.7 190.6,419.0 193.1,416.4 195.6,413.9 198.1,411.3 200.7,408.8 203.2,406.4 205.7,404.0 208.2,401.6 210.7,399.2 213.2,396.9 215.7,394.6 218.2,392.3 220.8,390.1 223.3,387.9 225.8,385.8 228.3,383.6 230.8,381.5 233.3,379.4 235.8,377.3 238.3,375.3 240.9,373.2 243.4,371.2 245.9,369.2 248.4,367.3 250.9,365.4 253.4,363.5 255.9,361.6 258.4,359.7 261.0,357.9 263.5,356.0 266.0,354.2 268.5,352.4 271.0,350.7 273.5,348.9 276.0,347.2 278.5,345.4 281.1,343.7 283.6,342.0 286.1,340.3 288.6,338.6 291.1,337.0 293.6,335.3 296.1,333.7 298.6,332.1 301.2,330.5 303.7,328.9 306.2,327.3 308.7,325.7 311.2,324.2 313.7,322.6 316.2,321.1 318.7,319.6 321.3,318.1 323.8,316.6 326.3,315.1 328.8,313.6 331.3,312.2 333.8,310.7 336.3,309.2 338.8,307.8 341.4,306.4 343.9,305.0 346.4,303.5 348.9,302.1 351.4,300.7 353.9,299.4 356.4,298.0 358.9,296.6 361.5,295.2 364.0,293.9 366.5,292.5 369.0,291.2 371.5,289.9 374.0,288.5 376.5,287.2 379.0,285.9 381.6,284.6 384.1,283.3 386.6,282.0 389.1,280.7 391.6,279.4 394.1,278.2 396.6,276.9 399.1,275.7 401.7,274.4 404.2,273.2 406.7,271.9 409.2,270.7 411.7,269.4 414.2,268.2 416.7,267.0 419.2,265.8 421.8,264.6 424.3,263.4 426.8,262.2 429.3,261.0 431.8,259.8 434.3,258.6 436.8,257.4 439.3,256.2 441.9,255.1 444.4,253.9 446.9,252.7 449.4,251.6 451.9,250.4 454.4,249.3 456.9,248.2 459.4,247.0 462.0,245.9 464.5,244.8 467.0,243.6 469.5,242.5 472.0,241.4 474.5,240.2 477.0,239.1 479.5,238.0 482.1,236.9 484.6,235.8 487.1,234.7 489.6,233.7 492.1,232.6 494.6,231.5 497.1,230.4 499.6,229.3 502.2,228.3 504.7,227.2 507.2,226.1 509.7,225.1 512.2,224.0 514.7,223.0 517.2,221.9 519.7,220.9 522.3,219.8 524.8,218.8 527.3,217.7 529.8,216.7 532.3,215.7 534.8,214.6 537.3,213.6 539.8,212.6 542.4,211.6 544.9,210.6 547.4,209.6 549.9,208.6 552.4,207.6 554.9,206.6 557.4,205.6 559.9,204.6 562.5,203.7 565.0,202.6 567.5,201.7 570.0,200.7" fill="none" stroke="#d62728" stroke-width="2"/>
<polyline points="72.5,547.7 75.0,544.3 77.5,540.2 80.1,536.3 82.6,532.5 85.1,528.8 87.6,525.3 90.1,522.0 92.6,518.7 95.1,515.7 97.6,512.7 100.2,509.8 102.7,506.9 105.2,504.2 107.7,501.5 110.2,498.9 112.7,496.3 115.2,493.8 117.7,491.3 120.3,488.9 122.8,486.5 125.3,484.2 127.8,481.9 130.3,479.7 132.8,477.4 135.3,475.3 137.8,473.2 140.4,471.0 142.9,469.0 145.4,466.9 147.9,465.0 150.4,463.0 152.9,461.1 155.4,459.2 157.9,457.3 160.5,455.4 163.0,453.6 165.5,451.7 168.0,449.9 170.5,448.1 173.0,446.4 175.5,444.6 178.0,442.9 180.6,441.2 183.1,439.5 185.6,437.8 188.1,436.2 190.6,434.5 193.1,432.9 195.6,431.3 198.1,429.7 200.7,428.1 203.2,426.5 205.7,424.9 208.2,423.4 210.7,421.9 213.2,420.3 215.7,418.8 218.2,417.4 220.8,415.9 223.3,414.4 225.8,412.9 228.3,411.5 230.8,410.0 233.3,408.6 235.8,407.2 238.3,405.8 240.9,404.4 243.4,403.0 245.9,401.6 248.4,400.3 250.9,398.9 253.4,397.5 255.9,396.1 258.4,394.8 261.0,393.5 263.5,392.1 266.0,390.8 268.5,389.5 271.0,388.2 273.5,386.9 276.0,385.6 278.5,384.3 281.1,383.1 283.6,381.8 286.1,380.6 288.6,379.3 291.1,378.0 293.6,376.8 296.1,375.5 298.6,374.2 301.2,372.9 303.7,371.7 306.2,370.4 308.7,369.2 311.2,368.0 313.7,366.8 316.2,365.5 318.7,364.4 321.3,363.2 323.8,362.0 326.3,360.8 328.8,359.6 331.3,358.5 333.8,357.4 336.3,356.3 338.8,355.1 341.4,354.0 343.9,352.8 346.4,351.6 348.9,350.5 351.4,349.4 353.9,348.2 356.4,347.1 358.9,346.0 361.5,344.9 364.0,343.8 366.5,342.7 369.0,341.6 371.5,340.5 374.0,339.4 376.5,338.3 379.0,337.2 381.6,336.0 384.1,334.9 386.6,333.9 389.1,332.8 391.6,331.7 394.1,330.6 396.6,329.6 399.1,328.5 401.7,327.5 404.2,326.4 406.7,325.4 409.2,324.3 411.7,323.3 414.2,322.3 416.7,321.2 419.2,320.2 421.8,319.2 424.3,318.2 426.8,317.2 429.3,316.1 431.8,315.2 434.3,314.1 436.8,313.1 439.3,312.1 441.9,311.1 444.4,310.1 446.9,309.1 449.4,308.1 451.9,307.1 454.4,306.1 456.9,305.2 459.4,304.2 462.0,303.2 464.5,302.2 467.0,301.3 469.5,300.4 472.0,299.4 474.5,298.5 477.0,297.5 479.5,296.6 482.1,295.7 484.6,294.8 487.1,293.8 489.6,292.9 492.1,291.9 494.6,291.0 497.1,290.1 499.6,289.2 502.2,288.3 504.7,287.3 507.2,286.4 509.7,285.5 512.2,284.6 514.7,283.7 517.2,282.8 519.7,281.9 522.3,281.0 524.8,280.1 527.3,279.2 529.8,278.4 532.3,277.5 534.8,276.6 537.3,275.7 539.8,274.8 542.4,273.9 544.9,273.0 547.4,272.2 549.9,271.3 552.4,270.4 554.9,269.5 557.4,268.7 559.9,267.9 562.5,267.0 565.0,266.1 567.5,265.2 570.0,264.3" fill="none" stroke="#2ca02c" stroke-width="2"/>
<polyline points="72.5,547.5 75.0,543.6 77.5,536.4 80.1,528.2 82.6,521.0 85.1,514.8 87.6,509.8 90.1,505.4 92.6,501.6 95.1,498.2 97.6,495.1 100.2,492.1 102.7,489.2 105.2,486.4 107.7,483.7 110.2,481.0 112.7,478.4 115.2,475.8 117.7,473.2 120.3,470.7 122.8,468.3 125.3,465.9 127.8,463.5 130.3,461.1 132.8,458.8 135.3,456.5 137.8,454.2 140.4,451.9 142.9,449.7 145.4,447.5 147.9,445.3 150.4,443.2 152.9,441.1 155.4,439.0 157.9,436.9 160.5,434.8 163.0,432.8 165.5,430.8 168.0,428.8 170.5,426.8 173.0,424.9 175.5,423.0 178.0,421.0 180.6,419.2 183.1,417.3 185.6,415.4 188.1,413.6 190.6,411.8 193.1,409.9 195.6,408.1 198.1,406.4 200.7,404.6 203.2,402.9 205.7,401.1 208.2,399.4 210.7,397.7 213.2,396.0 215.7,394.3 218.2,392.7 220.8,391.1 223.3,389.4 225.8,387.8 228.3,386.2 230.8,384.6 233.3,383.0 235.8,381.4 238.3,379.8 240.9,378.3 243.4,376.7 245.9,375.2 248.4,373.7 250.9,372.1 253.4,370.6 255.9,369.1 258.4,367.6 261.0,366.2 263.5,364.7 266.0,363.2 268.5,361.8 271.0,360.3 273.5,358.9 276.0,357.5 278.5,356.1 281.1,354.7 283.6,353.3 286.1,351.9 288.6,350.5 291.1,349.1 293.6,347.8 296.1,346.4 298.6,345.1 301.2,343.7 303.7,342.4 306.2,341.1 308.7,339.7 311.2,338.4 313.7,337.1 316.2,335.8 318.7,334.5 321.3,333.2 323.8,331.9 326.3,330.6 328.8,329.4 331.3,328.1 333.8,326.9 336.3,325.6 338.8,324.3 341.4,323.1 343.9,321.9 346.4,320.6 348.9,319.4 351.4,318.2 353.9,316.9 356.4,315.7 358.9,314.5 361.5,313.3 364.0,312.1 366.5,310.9 369.0,309.7 371.5,308.5 374.0,307.3 376.5,306.1 379.0,305.0 381.6,303.8 384.1,302.6 386.6,301.5 389.1,300.3 391.6,299.2 394.1,298.1 396.6,296.9 399.1,295.8 401.7,294.6 404.2,293.5 406.7,292.4 409.2,291.2 411.7,290.1 414.2,289.0 416.7,287.9 419.2,286.8 421.8,285.7 424.3,284.6 426.8,283.5 429.3,282.4 431.8,281.3 434.3,280.3 436.8,279.2 439.3,278.1 441.9,277.0 444.4,276.0 446.9,274.9 449.4,273.8 451.9,272.8 454.4,271.7 456.9,270.7 459.4,269.6 462.0,268.5 464.5,267.5 467.0,266.4 469.5,265.4 472.0,264.3 474.5,263.3 477.0,262.3 479.5,261.3 482.1,260.3 484.6,259.2 487.1,258.2 489.6,257.2 492.1,256.2 494.6,255.1 497.1,254.1 499.6,253.1 502.2,252.1 504.7,251.1 507.2,250.0 509.7,249.0 512.2,248.0 514.7,247.0 517.2,246.0 519.7,245.0 522.3,244.1 524.8,243.1 527.3,242.1 529.8,241.1 532.3,240.1 534.8,239.1 537.3,238.2 539.8,237.2 542.4,236.2 544.9,235.3 547.4,234.3 549.9,233.4 552.4,232.4 554.9,231.4 557.4,230.5 559.9,229.5 562.5,228.6 565.0,227.6 567.5,226.7 570.0,225.7" fill="none" stroke="#17becf" stroke-width="2"/>
<polyline points="72.5,70.0 75.0,519.1 77.5,521.4 80.1,520.7 82.6,518.6 85.1,515.9 87.6,513.2 90.1,510.4 92.6,507.6 95.1,504.7 97.6,501.9 100.2,499.1 102.7,496.4 105.2,493.7 107.7,491.1 110.2,488.5 112.7,486.0 115.2,483.4 117.7,480.9 120.3,478.5 122.8,476.1 125.3,473.7 127.8,471.3 130.3,469.0 132.8,466.7 135.3,464.4 137.8,462.2 140.4,460.0 142.9,457.8 145.4,455.7 147.9,453.6 150.4,451.5 152.9,449.4 155.4,447.4 157.9,445.4 160.5,443.4 163.0,441.4 165.5,439.5 168.0,437.6 170.5,435.7 173.0,433.8 175.5,432.0 178.0,430.2 180.6,428.4 183.1,426.6 185.6,424.8 188.1,423.1 190.6,421.3 193.1,419.6 195.6,417.9 198.1,416.2 200.7,414.6 203.2,412.9 205.7,411.3 208.2,409.7 210.7,408.1 213.2,406.5 215.7,404.9 218.2,403.3 220.8,401.8 223.3,400.2 225.8,398.7 228.3,397.2 230.8,395.7 233.3,394.2 235.8,392.6 238.3,391.2 240.9,389.7 243.4,388.3 245.9,386.9 248.4,385.5 250.9,384.0 253.4,382.6 255.9,381.2 258.4,379.8 261.0,378.4 263.5,377.0 266.0,375.7 268.5,374.3 271.0,373.0 273.5,371.6 276.0,370.2 278.5,368.9 281.1,367.6 283.6,366.3 286.1,365.0 288.6,363.7 291.1,362.4 293.6,361.1 296.1,359.9 298.6,358.6 301.2,357.4 303.7,356.1 306.2,354.8 308.7,353.6 311.2,352.3 313.7,351.1 316.2,349.8 318.7,348.6 321.3,347.4 323.8,346.1 326.3,345.0 328.8,343.7 331.3,342.6 333.8,341.4 336.3,340.1 338.8,338.9 341.4,337.8 343.9,336.6 346.4,335.4 348.9,334.3 351.4,333.1 353.9,331.9 356.4,330.7 358.9,329.6 361.5,328.5 364.0,327.4 366.5,326.2 369.0,325.1 371.5,323.9 374.0,322.8 376.5,321.7 379.0,320.6 381.6,319.5 384.1,318.4 386.6,317.3 389.1,316.2 391.6,315.1 394.1,314.0 396.6,313.0 399.1,311.9 401.7,310.9 404.2,309.9 406.7,308.7 409.2,307.6 411.7,306.5 414.2,305.4 416.7,304.4 419.2,303.2 421.8,302.2 424.3,301.1 426.8,300.1 429.3,299.0 431.8,298.0 434.3,296.9 436.8,295.9 439.3,294.8 441.9,293.7 444.4,292.7 446.9,291.6 449.4,290.5 451.9,289.5 454.4,288.5 456.9,287.4 459.4,286.4 462.0,285.3 464.5,284.3 467.0,283.2 469.5,282.2 472.0,281.1 474.5,279.9 477.0,278.9 479.5,277.9 482.1,276.9 484.6,275.9 487.1,274.9 489.6,273.9 492.1,272.8 494.6,271.8 497.1,270.8 499.6,269.8 502.2,268.8 504.7,267.8 507.2,266.8 509.7,265.8 512.2,264.8 514.7,263.8 517.2,262.8 519.7,261.7 522.3,260.7 524.8,259.8 527.3,258.8 529.8,257.8 532.3,256.7 534.8,255.7 537.3,254.7 539.8,253.7 542.4,252.8 544.9,251.8 547.4,250.8 549.9,249.8 552.4,248.9 554.9,247.9 557.4,247.0 559.9,246.0 562.5,245.0 565.0,244.0 567.5,243.0 570.0,242.0" fill="none" stroke="#1f77b4" stroke-width="2"/>
<polyline points="72.5,523.0 75.0,523.5 77.5,523.2 80.1,523.2 82.6,523.2 85.1,521.5 87.6,510.8 90.1,484.7 92.6,441.9 95.1,403.2 97.6,391.9 100.2,395.8 102.7,400.4 105.2,402.9 107.7,404.1 110.2,404.6 112.7,404.7 115.2,404.4 117.7,403.9 120.3,403.0 122.8,402.0 125.3,400.8 127.8,399.5 130.3,398.2 132.8,396.9 135.3,395.5 137.8,394.2 140.4,392.9 142.9,391.5 145.4,390.1 147.9,388.7 150.4,387.2 152.9,385.7 155.4,384.2 157.9,382.7 160.5,381.2 163.0,379.7 165.5,378.2 168.0,376.7 170.5,375.2 173.0,373.7 175.5,372.2 178.0,370.7 180.6,369.2 183.1,367.6 185.6,366.1 188.1,364.6 190.6,363.1 193.1,361.6 195.6,360.1 198.1,358.6 200.7,357.1 203.2,355.6 205.7,354.1 208.2,352.6 210.7,351.1 213.2,349.7 215.7,348.2 218.2,346.7 220.8,345.3 223.3,343.8 225.8,342.3 228.3,340.9 230.8,339.4 233.3,338.0 235.8,336.6 238.3,335.1 240.9,333.7 243.4,332.3 245.9,330.9 248.4,329.5 250.9,328.1 253.4,326.7 255.9,325.3 258.4,323.9 261.0,322.6 263.5,321.2 266.0,319.8 268.5,318.5 271.0,317.1 273.5,315.8 276.0,314.4 278.5,313.1 281.1,311.7 283.6,310.4 286.1,309.1 288.6,307.8 291.1,306.5 293.6,305.1 296.1,303.8 298.6,302.5 301.2,301.2 303.7,300.0 306.2,298.7 308.7,297.4 311.2,296.1 313.7,294.9 316.2,293.6 318.7,292.4 321.3,291.1 323.8,289.9 326.3,288.6 328.8,287.4 331.3,286.2 333.8,284.9 336.3,283.7 338.8,282.5 341.4,281.3 343.9,280.1 346.4,278.8 348.9,277.7 351.4,276.5 353.9,275.3 356.4,274.1 358.9,272.9 361.5,271.7 364.0,270.6 366.5,269.4 369.0,268.3 371.5,267.1 374.0,265.9 376.5,264.8 379.0,263.6 381.6,262.5 384.1,261.3 386.6,260.2 389.1,259.1 391.6,257.9 394.1,256.8 396.6,255.7 399.1,254.5 401.7,253.4 404.2,252.3 406.7,251.2 409.2,250.1 411.7,249.0 414.2,247.9 416.7,246.8 419.2,245.7 421.8,244.6 424.3,243.5 426.8,242.4 429.3,241.4 431.8,240.3 434.3,239.2 436.8,238.1 439.3,237.1 441.9,236.0 444.4,235.0 446.9,233.9 449.4,232.8 451.9,231.8 454.4,230.8 456.9,229.7 459.4,228.7 462.0,227.6 464.5,226.6 467.0,225.5 469.5,224.5 472.0,223.4 474.5,222.4 477.0,221.4 479.5,220.4 482.1,219.4 484.6,218.4 487.1,217.3 489.6,216.3 492.1,215.3 494.6,214.3 497.1,213.3 499.6,212.3 502.2,211.3 504.7,210.3 507.2,209.4 509.7,208.4 512.2,207.4 514.7,206.4 517.2,205.4 519.7,204.4 522.3,203.4 524.8,202.5 527.3,201.5 529.8,200.5 532.3,199.6 534.8,198.6 537.3,197.7 539.8,196.7 542.4,195.8 544.9,194.8 547.4,193.9 549.9,192.9 552.4,192.0 554.9,191.1 557.4,190.1 559.9,189.2 562.5,188.2 565.0,187.3 567.5,186.4 570.0,185.4" fill="none" stroke="#9467bd" stroke-width="2"/>
<text x="940.0" y="42" text-anchor="middle" class="title">DM</text>
<rect x="690" y="70" width="500" height="520" fill="white" stroke="#333"/>
<line x1="690" y1="590.0" x2="1190" y2="590.0" stroke="#ddd"/>
<text x="680" y="594.0" text-anchor="end" class="tick">0</text>
<line x1="690" y1="486.0" x2="1190" y2="486.0" stroke="#ddd"/>
<text x="680" y="490.0" text-anchor="end" class="tick">3</text>
<line x1="690" y1="382.0" x2="1190" y2="382.0" stroke="#ddd"/>
<text x="680" y="386.0" text-anchor="end" class="tick">6</text>
<line x1="690" y1="278.0" x2="1190" y2="278.0" stroke="#ddd"/>
<text x="680" y="282.0" text-anchor="end" class="tick">9</text>
<line x1="690" y1="174.0" x2="1190" y2="174.0" stroke="#ddd"/>
<text x="680" y="178.0" text-anchor="end" class="tick">12</text>
<line x1="690" y1="70.0" x2="1190" y2="70.0" stroke="#ddd"/>
<text x="680" y="74.0" text-anchor="end" class="tick">15</text>
<line x1="690.0" y1="70" x2="690.0" y2="590" stroke="#eee"/>
<text x="690.0" y="612" text-anchor="middle" class="tick">-1</text>
<line x1="709.2" y1="70" x2="709.2" y2="590" stroke="#eee"/>
<text x="709.2" y="612" text-anchor="middle" class="tick">0</text>
<line x1="805.4" y1="70" x2="805.4" y2="590" stroke="#eee"/>
<text x="805.4" y="612" text-anchor="middle" class="tick">5</text>
<line x1="901.5" y1="70" x2="901.5" y2="590" stroke="#eee"/>
<text x="901.5" y="612" text-anchor="middle" class="tick">10</text>
<line x1="997.7" y1="70" x2="997.7" y2="590" stroke="#eee"/>
<text x="997.7" y="612" text-anchor="middle" class="tick">15</text>
<line x1="1093.8" y1="70" x2="1093.8" y2="590" stroke="#eee"/>
<text x="1093.8" y="612" text-anchor="middle" class="tick">20</text>
<line x1="1190.0" y1="70" x2="1190.0" y2="590" stroke="#eee"/>
<text x="1190.0" y="612" text-anchor="middle" class="tick">25</text>
<text x="940.0" y="638" text-anchor="middle" class="axis">Overdensity threshold</text>
<text x="638" y="330.0" transform="rotate(-90 638 330.0)" text-anchor="middle" class="axis">Clumping factor</text>
<polyline points="695.0,504.1 697.5,508.7 700.1,508.7 702.6,506.5 705.1,502.9 707.6,498.9 710.1,498.9 712.6,494.9 715.1,491.0 717.6,487.1 720.2,487.1 722.7,483.4 725.2,479.7 727.7,476.1 730.2,476.1 732.7,472.7 735.2,469.3 737.7,469.3 740.3,466.0 742.8,462.8 745.3,459.7 747.8,459.7 750.3,456.6 752.8,453.5 755.3,450.5 757.8,450.5 760.4,447.6 762.9,444.7 765.4,441.9 767.9,441.9 770.4,439.1 772.9,436.3 775.4,436.3 777.9,433.7 780.5,431.1 783.0,428.5 785.5,428.5 788.0,425.8 790.5,423.3 793.0,420.8 795.5,420.8 798.0,418.3 800.6,415.9 803.1,413.5 805.6,413.5 808.1,411.1 810.6,408.8 813.1,408.8 815.6,406.4 818.1,404.0 820.7,401.8 823.2,401.8 825.7,399.5 828.2,397.3 830.7,395.0 833.2,395.0 835.7,392.8 838.2,390.7 840.8,388.6 843.3,388.6 845.8,386.4 848.3,384.2 850.8,384.2 853.3,382.1 855.8,380.1 858.3,378.0 860.9,378.0 863.4,375.9 865.9,373.9 868.4,371.9 870.9,371.9 873.4,369.9 875.9,367.9 878.4,365.9 881.0,365.9 883.5,364.0 886.0,362.1 888.5,362.1 891.0,360.1 893.5,358.1 896.0,356.2 898.5,356.2 901.1,354.2 903.6,352.3 906.1,350.4 908.6,350.4 911.1,348.5 913.6,346.7 916.1,344.9 918.6,344.9 921.2,343.1 923.7,341.3 926.2,341.3 928.7,339.5 931.2,337.6 933.7,335.8 936.2,335.8 938.7,334.0 941.3,332.2 943.8,330.4 946.3,330.4 948.8,328.7 951.3,326.8 953.8,325.1 956.3,325.1 958.8,323.3 961.4,321.6 963.9,321.6 966.4,319.8 968.9,318.1 971.4,316.3 973.9,316.3 976.4,314.5 978.9,312.7 981.5,311.0 984.0,311.0 986.5,309.3 989.0,307.6 991.5,305.8 994.0,305.8 996.5,304.2 999.0,302.5 1001.6,302.5 1004.1,300.9 1006.6,299.2 1009.1,297.6 1011.6,297.6 1014.1,295.9 1016.6,294.3 1019.1,292.6 1021.7,292.6 1024.2,290.9 1026.7,289.3 1029.2,287.6 1031.7,287.6 1034.2,285.9 1036.7,284.3 1039.2,284.3 1041.8,282.6 1044.3,281.0 1046.8,279.3 1049.3,279.3 1051.8,277.6 1054.3,276.1 1056.8,274.4 1059.3,274.4 1061.9,272.7 1064.4,271.1 1066.9,269.5 1069.4,269.5 1071.9,267.9 1074.4,266.3 1076.9,266.3 1079.4,264.7 1082.0,263.1 1084.5,261.5 1087.0,261.5 1089.5,259.9 1092.0,258.3 1094.5,256.6 1097.0,256.6 1099.5,255.0 1102.1,253.4 1104.6,251.8 1107.1,251.8 1109.6,250.2 1112.1,248.6 1114.6,248.6 1117.1,247.0 1119.6,245.5 1122.2,244.0 1124.7,244.0 1127.2,242.4 1129.7,240.8 1132.2,239.3 1134.7,239.3 1137.2,237.7 1139.7,236.2 1142.3,234.7 1144.8,234.7 1147.3,233.1 1149.8,231.5 1152.3,231.5 1154.8,230.0 1157.3,228.4 1159.8,226.9 1162.4,226.9 1164.9,225.3 1167.4,223.9 1169.9,222.5 1172.4,222.5 1174.9,220.9 1177.4,219.5 1179.9,217.9 1182.5,217.9 1185.0,216.4 1187.5,214.8 1190.0,214.8" fill="none" stroke="#ff7f0e" stroke-width="2"/>
<polyline points="692.5,542.2 695.0,539.6 697.5,534.3 700.1,530.9 702.6,526.0 705.1,522.9 707.6,518.6 710.1,515.9 712.6,512.0 715.1,509.5 717.6,505.9 720.2,503.6 722.7,500.3 725.2,498.2 727.7,495.0 730.2,493.0 732.7,490.0 735.2,488.1 737.7,485.2 740.3,483.4 742.8,481.5 745.3,478.9 747.8,477.1 750.3,474.5 752.8,472.8 755.3,470.3 757.8,468.6 760.4,466.2 762.9,464.6 765.4,462.2 767.9,460.7 770.4,458.4 772.9,456.9 775.4,454.6 777.9,453.1 780.5,451.0 783.0,449.5 785.5,447.4 788.0,446.0 790.5,443.9 793.0,442.5 795.5,441.1 798.0,439.1 800.6,437.7 803.1,435.7 805.6,434.4 808.1,432.5 810.6,431.2 813.1,429.3 815.6,428.0 818.1,426.1 820.7,424.8 823.2,423.0 825.7,421.7 828.2,419.9 830.7,418.6 833.2,416.8 835.7,415.6 838.2,413.8 840.8,412.6 843.3,410.9 845.8,409.7 848.3,408.5 850.8,406.8 853.3,405.6 855.8,403.9 858.3,402.8 860.9,401.1 863.4,399.9 865.9,398.2 868.4,397.1 870.9,395.4 873.4,394.3 875.9,392.7 878.4,391.6 881.0,389.9 883.5,388.8 886.0,387.2 888.5,386.1 891.0,384.5 893.5,383.4 896.0,381.8 898.5,380.7 901.1,379.6 903.6,378.0 906.1,377.0 908.6,375.4 911.1,374.3 913.6,372.8 916.1,371.7 918.6,370.2 921.2,369.1 923.7,367.6 926.2,366.6 928.7,365.0 931.2,364.0 933.7,362.5 936.2,361.5 938.7,359.9 941.3,358.9 943.8,357.4 946.3,356.4 948.8,354.9 951.3,353.9 953.8,352.9 956.3,351.4 958.8,350.4 961.4,348.9 963.9,347.9 966.4,346.5 968.9,345.5 971.4,344.0 973.9,343.0 976.4,341.6 978.9,340.6 981.5,339.2 984.0,338.2 986.5,336.8 989.0,335.8 991.5,334.3 994.0,333.4 996.5,331.9 999.0,331.0 1001.6,330.0 1004.1,328.6 1006.6,327.7 1009.1,326.2 1011.6,325.3 1014.1,323.8 1016.6,322.9 1019.1,321.5 1021.7,320.6 1024.2,319.2 1026.7,318.2 1029.2,316.8 1031.7,315.9 1034.2,314.5 1036.7,313.5 1039.2,312.2 1041.8,311.3 1044.3,309.9 1046.8,309.0 1049.3,307.6 1051.8,306.7 1054.3,305.8 1056.8,304.4 1059.3,303.5 1061.9,302.1 1064.4,301.2 1066.9,299.9 1069.4,299.0 1071.9,297.6 1074.4,296.7 1076.9,295.4 1079.4,294.5 1082.0,293.1 1084.5,292.2 1087.0,290.9 1089.5,290.0 1092.0,288.7 1094.5,287.8 1097.0,286.4 1099.5,285.5 1102.1,284.2 1104.6,283.4 1107.1,282.5 1109.6,281.2 1112.1,280.3 1114.6,279.0 1117.1,278.1 1119.6,276.7 1122.2,275.9 1124.7,274.6 1127.2,273.7 1129.7,272.4 1132.2,271.6 1134.7,270.3 1137.2,269.4 1139.7,268.1 1142.3,267.3 1144.8,266.0 1147.3,265.2 1149.8,263.9 1152.3,263.0 1154.8,261.7 1157.3,260.9 1159.8,260.0 1162.4,258.7 1164.9,257.8 1167.4,256.6 1169.9,255.7 1172.4,254.4 1174.9,253.6 1177.4,252.4 1179.9,251.5 1182.5,250.3 1185.0,249.4 1187.5,248.2 1190.0,247.3" fill="none" stroke="#d62728" stroke-width="2"/>
<polyline points="692.5,544.4 695.0,540.2 697.5,535.6 700.1,531.2 702.6,527.1 705.1,523.2 707.6,519.5 710.1,516.0 712.6,512.7 715.1,509.6 717.6,506.6 720.2,503.7 722.7,500.9 725.2,498.2 727.7,495.6 730.2,493.0 732.7,490.5 735.2,488.0 737.7,485.6 740.3,483.3 742.8,481.0 745.3,478.7 747.8,476.5 750.3,474.3 752.8,472.2 755.3,470.1 757.8,468.0 760.4,466.0 762.9,464.0 765.4,462.0 767.9,460.0 770.4,458.1 772.9,456.2 775.4,454.3 777.9,452.5 780.5,450.6 783.0,448.8 785.5,447.0 788.0,445.2 790.5,443.5 793.0,441.8 795.5,440.1 798.0,438.4 800.6,436.7 803.1,435.0 805.6,433.3 808.1,431.7 810.6,430.1 813.1,428.4 815.6,426.8 818.1,425.3 820.7,423.7 823.2,422.2 825.7,420.6 828.2,419.1 830.7,417.6 833.2,416.0 835.7,414.5 838.2,413.0 840.8,411.5 843.3,410.1 845.8,408.6 848.3,407.2 850.8,405.7 853.3,404.3 855.8,402.8 858.3,401.4 860.9,400.0 863.4,398.6 865.9,397.2 868.4,395.8 870.9,394.4 873.4,393.0 875.9,391.7 878.4,390.3 881.0,388.9 883.5,387.6 886.0,386.2 888.5,384.9 891.0,383.5 893.5,382.1 896.0,380.8 898.5,379.5 901.1,378.1 903.6,376.8 906.1,375.5 908.6,374.2 911.1,372.9 913.6,371.6 916.1,370.4 918.6,369.0 921.2,367.7 923.7,366.5 926.2,365.2 928.7,363.9 931.2,362.6 933.7,361.3 936.2,360.1 938.7,358.8 941.3,357.5 943.8,356.3 946.3,355.0 948.8,353.8 951.3,352.6 953.8,351.3 956.3,350.1 958.8,348.9 961.4,347.7 963.9,346.4 966.4,345.2 968.9,344.0 971.4,342.8 973.9,341.6 976.4,340.4 978.9,339.2 981.5,337.9 984.0,336.7 986.5,335.5 989.0,334.3 991.5,333.1 994.0,331.9 996.5,330.7 999.0,329.6 1001.6,328.4 1004.1,327.2 1006.6,326.1 1009.1,325.0 1011.6,323.8 1014.1,322.7 1016.6,321.6 1019.1,320.4 1021.7,319.3 1024.2,318.2 1026.7,317.0 1029.2,315.9 1031.7,314.8 1034.2,313.7 1036.7,312.5 1039.2,311.4 1041.8,310.3 1044.3,309.2 1046.8,308.1 1049.3,306.9 1051.8,305.8 1054.3,304.7 1056.8,303.6 1059.3,302.5 1061.9,301.4 1064.4,300.3 1066.9,299.2 1069.4,298.0 1071.9,296.9 1074.4,295.8 1076.9,294.7 1079.4,293.7 1082.0,292.5 1084.5,291.4 1087.0,290.3 1089.5,289.2 1092.0,288.1 1094.5,287.1 1097.0,286.0 1099.5,284.9 1102.1,283.8 1104.6,282.8 1107.1,281.8 1109.6,280.7 1112.1,279.6 1114.6,278.6 1117.1,277.5 1119.6,276.5 1122.2,275.4 1124.7,274.3 1127.2,273.2 1129.7,272.2 1132.2,271.1 1134.7,269.9 1137.2,268.9 1139.7,267.9 1142.3,266.8 1144.8,265.8 1147.3,264.8 1149.8,263.7 1152.3,262.7 1154.8,261.6 1157.3,260.5 1159.8,259.5 1162.4,258.4 1164.9,257.4 1167.4,256.3 1169.9,255.2 1172.4,254.2 1174.9,253.1 1177.4,252.1 1179.9,251.1 1182.5,250.1 1185.0,249.0 1187.5,248.0 1190.0,246.9" fill="none" stroke="#2ca02c" stroke-width="2"/>
<polyline points="692.5,530.2 695.0,531.2 697.5,528.1 700.1,524.4 702.6,520.5 705.1,516.8 707.6,513.2 710.1,509.7 712.6,506.4 715.1,503.2 717.6,500.1 720.2,497.2 722.7,494.3 725.2,491.5 727.7,488.8 730.2,486.2 732.7,483.6 735.2,481.1 737.7,478.6 740.3,476.1 742.8,473.8 745.3,471.4 747.8,469.1 750.3,466.9 752.8,464.6 755.3,462.5 757.8,460.3 760.4,458.2 762.9,456.1 765.4,454.0 767.9,452.0 770.4,450.0 772.9,448.0 775.4,446.1 777.9,444.1 780.5,442.2 783.0,440.3 785.5,438.4 788.0,436.6 790.5,434.8 793.0,433.0 795.5,431.2 798.0,429.4 800.6,427.6 803.1,425.9 805.6,424.2 808.1,422.5 810.6,420.8 813.1,419.1 815.6,417.4 818.1,415.8 820.7,414.1 823.2,412.5 825.7,410.9 828.2,409.3 830.7,407.7 833.2,406.1 835.7,404.6 838.2,403.0 840.8,401.5 843.3,399.9 845.8,398.4 848.3,396.9 850.8,395.4 853.3,393.9 855.8,392.4 858.3,390.9 860.9,389.4 863.4,388.0 865.9,386.5 868.4,385.0 870.9,383.6 873.4,382.1 875.9,380.7 878.4,379.3 881.0,377.9 883.5,376.5 886.0,375.1 888.5,373.7 891.0,372.3 893.5,370.9 896.0,369.5 898.5,368.2 901.1,366.8 903.6,365.4 906.1,364.1 908.6,362.7 911.1,361.4 913.6,360.1 916.1,358.7 918.6,357.4 921.2,356.1 923.7,354.7 926.2,353.4 928.7,352.1 931.2,350.8 933.7,349.5 936.2,348.2 938.7,346.9 941.3,345.6 943.8,344.3 946.3,343.1 948.8,341.8 951.3,340.5 953.8,339.2 956.3,338.0 958.8,336.7 961.4,335.4 963.9,334.1 966.4,332.9 968.9,331.6 971.4,330.4 973.9,329.1 976.4,327.8 978.9,326.6 981.5,325.3 984.0,324.1 986.5,322.9 989.0,321.6 991.5,320.4 994.0,319.2 996.5,318.0 999.0,316.7 1001.6,315.5 1004.1,314.3 1006.6,313.1 1009.1,311.9 1011.6,310.6 1014.1,309.4 1016.6,308.3 1019.1,307.1 1021.7,305.9 1024.2,304.7 1026.7,303.5 1029.2,302.3 1031.7,301.1 1034.2,299.9 1036.7,298.7 1039.2,297.5 1041.8,296.3 1044.3,295.2 1046.8,294.0 1049.3,292.8 1051.8,291.6 1054.3,290.4 1056.8,289.3 1059.3,288.1 1061.9,286.9 1064.4,285.8 1066.9,284.6 1069.4,283.5 1071.9,282.3 1074.4,281.1 1076.9,280.0 1079.4,278.8 1082.0,277.7 1084.5,276.6 1087.0,275.5 1089.5,274.4 1092.0,273.2 1094.5,272.1 1097.0,270.9 1099.5,269.8 1102.1,268.6 1104.6,267.5 1107.1,266.3 1109.6,265.2 1112.1,264.1 1114.6,263.0 1117.1,261.8 1119.6,260.7 1122.2,259.6 1124.7,258.4 1127.2,257.3 1129.7,256.2 1132.2,255.1 1134.7,254.0 1137.2,252.9 1139.7,251.8 1142.3,250.6 1144.8,249.5 1147.3,248.4 1149.8,247.3 1152.3,246.2 1154.8,245.1 1157.3,244.0 1159.8,243.0 1162.4,241.9 1164.9,240.7 1167.4,239.6 1169.9,238.5 1172.4,237.4 1174.9,236.4 1177.4,235.3 1179.9,234.2 1182.5,233.1 1185.0,232.0 1187.5,230.9 1190.0,229.8" fill="none" stroke="#17becf" stroke-width="2"/>
<polyline points="695.0,504.1 697.5,508.7 700.1,508.7 702.6,506.5 705.1,502.9 707.6,498.9 710.1,498.9 712.6,494.9 715.1,491.0 717.6,487.1 720.2,487.1 722.7,483.4 725.2,479.7 727.7,476.1 730.2,476.1 732.7,472.7 735.2,469.3 737.7,469.3 740.3,466.0 742.8,462.8 745.3,459.7 747.8,459.7 750.3,456.6 752.8,453.5 755.3,450.5 757.8,450.5 760.4,447.6 762.9,444.7 765.4,441.9 767.9,441.9 770.4,439.1 772.9,436.3 775.4,436.3 777.9,433.7 780.5,431.1 783.0,428.5 785.5,428.5 788.0,425.8 790.5,423.3 793.0,420.8 795.5,420.8 798.0,418.3 800.6,415.9 803.1,413.5 805.6,413.5 808.1,411.1 810.6,408.8 813.1,408.8 815.6,406.4 818.1,404.0 820.7,401.8 823.2,401.8 825.7,399.5 828.2,397.3 830.7,395.0 833.2,395.0 835.7,392.8 838.2,390.7 840.8,388.6 843.3,388.6 845.8,386.4 848.3,384.2 850.8,384.2 853.3,382.1 855.8,380.1 858.3,378.0 860.9,378.0 863.4,375.9 865.9,373.9 868.4,371.9 870.9,371.9 873.4,369.9 875.9,367.9 878.4,365.9 881.0,365.9 883.5,364.0 886.0,362.1 888.5,362.1 891.0,360.1 893.5,358.1 896.0,356.2 898.5,356.2 901.1,354.2 903.6,352.3 906.1,350.4 908.6,350.4 911.1,348.5 913.6,346.7 916.1,344.9 918.6,344.9 921.2,343.1 923.7,341.3 926.2,341.3 928.7,339.5 931.2,337.6 933.7,335.8 936.2,335.8 938.7,334.0 941.3,332.2 943.8,330.4 946.3,330.4 948.8,328.7 951.3,326.8 953.8,325.1 956.3,325.1 958.8,323.3 961.4,321.6 963.9,321.6 966.4,319.8 968.9,318.1 971.4,316.3 973.9,316.3 976.4,314.5 978.9,312.7 981.5,311.0 984.0,311.0 986.5,309.3 989.0,307.6 991.5,305.8 994.0,305.8 996.5,304.2 999.0,302.5 1001.6,302.5 1004.1,300.9 1006.6,299.2 1009.1,297.6 1011.6,297.6 1014.1,295.9 1016.6,294.3 1019.1,292.6 1021.7,292.6 1024.2,290.9 1026.7,289.3 1029.2,287.6 1031.7,287.6 1034.2,285.9 1036.7,284.3 1039.2,284.3 1041.8,282.6 1044.3,281.0 1046.8,279.3 1049.3,279.3 1051.8,277.6 1054.3,276.1 1056.8,274.4 1059.3,274.4 1061.9,272.7 1064.4,271.1 1066.9,269.5 1069.4,269.5 1071.9,267.9 1074.4,266.3 1076.9,266.3 1079.4,264.7 1082.0,263.1 1084.5,261.5 1087.0,261.5 1089.5,259.9 1092.0,258.3 1094.5,256.6 1097.0,256.6 1099.5,255.0 1102.1,253.4 1104.6,251.8 1107.1,251.8 1109.6,250.2 1112.1,248.6 1114.6,248.6 1117.1,247.0 1119.6,245.5 1122.2,244.0 1124.7,244.0 1127.2,242.4 1129.7,240.8 1132.2,239.3 1134.7,239.3 1137.2,237.7 1139.7,236.2 1142.3,234.7 1144.8,234.7 1147.3,233.1 1149.8,231.5 1152.3,231.5 1154.8,230.0 1157.3,228.4 1159.8,226.9 1162.4,226.9 1164.9,225.3 1167.4,223.9 1169.9,222.5 1172.4,222.5 1174.9,220.9 1177.4,219.5 1179.9,217.9 1182.5,217.9 1185.0,216.4 1187.5,214.8 1190.0,214.8" fill="none" stroke="#1f77b4" stroke-width="2"/>
<polyline points="695.0,496.7 697.5,496.7 700.1,502.3 702.6,500.3 705.1,500.3 707.6,496.6 710.1,492.5 712.6,492.5 715.1,488.3 717.6,484.1 720.2,484.1 722.7,480.1 725.2,480.1 727.7,476.1 730.2,472.2 732.7,472.2 735.2,468.4 737.7,464.7 740.3,464.7 742.8,461.1 745.3,457.6 747.8,457.6 750.3,454.2 752.8,450.8 755.3,450.8 757.8,447.5 760.4,447.5 762.9,444.2 765.4,441.0 767.9,441.0 770.4,437.9 772.9,434.8 775.4,434.8 777.9,431.8 780.5,428.8 783.0,428.8 785.5,425.9 788.0,423.0 790.5,423.0 793.0,420.2 795.5,420.2 798.0,417.4 800.6,414.6 803.1,414.6 805.6,411.9 808.1,409.2 810.6,409.2 813.1,406.6 815.6,403.9 818.1,403.9 820.7,401.4 823.2,398.8 825.7,398.8 828.2,396.3 830.7,396.3 833.2,393.8 835.7,391.3 838.2,391.3 840.8,388.9 843.3,386.5 845.8,386.5 848.3,384.1 850.8,381.7 853.3,381.7 855.8,379.3 858.3,377.0 860.9,377.0 863.4,374.7 865.9,374.7 868.4,372.4 870.9,370.1 873.4,370.1 875.9,367.8 878.4,365.6 881.0,365.6 883.5,363.4 886.0,361.1 888.5,361.1 891.0,358.9 893.5,358.9 896.0,356.7 898.5,354.5 901.1,354.5 903.6,352.4 906.1,350.2 908.6,350.2 911.1,348.1 913.6,346.0 916.1,346.0 918.6,343.9 921.2,341.8 923.7,341.8 926.2,339.8 928.7,339.8 931.2,337.7 933.7,335.7 936.2,335.7 938.7,333.6 941.3,331.5 943.8,331.5 946.3,329.5 948.8,327.5 951.3,327.5 953.8,325.4 956.3,323.4 958.8,323.4 961.4,321.4 963.9,321.4 966.4,319.4 968.9,317.4 971.4,317.4 973.9,315.4 976.4,313.5 978.9,313.5 981.5,311.5 984.0,309.6 986.5,309.6 989.0,307.6 991.5,305.7 994.0,305.7 996.5,303.8 999.0,303.8 1001.6,301.9 1004.1,299.9 1006.6,299.9 1009.1,298.0 1011.6,296.1 1014.1,296.1 1016.6,294.2 1019.1,292.3 1021.7,292.3 1024.2,290.4 1026.7,288.6 1029.2,288.6 1031.7,286.7 1034.2,286.7 1036.7,284.8 1039.2,283.0 1041.8,283.0 1044.3,281.1 1046.8,279.2 1049.3,279.2 1051.8,277.4 1054.3,275.5 1056.8,275.5 1059.3,273.7 1061.9,273.7 1064.4,271.8 1066.9,270.0 1069.4,270.0 1071.9,268.2 1074.4,266.4 1076.9,266.4 1079.4,264.6 1082.0,262.8 1084.5,262.8 1087.0,261.0 1089.5,259.2 1092.0,259.2 1094.5,257.4 1097.0,257.4 1099.5,255.6 1102.1,253.8 1104.6,253.8 1107.1,251.9 1109.6,250.2 1112.1,250.2 1114.6,248.4 1117.1,246.6 1119.6,246.6 1122.2,244.8 1124.7,243.1 1127.2,243.1 1129.7,241.3 1132.2,241.3 1134.7,239.5 1137.2,237.7 1139.7,237.7 1142.3,236.0 1144.8,234.2 1147.3,234.2 1149.8,232.4 1152.3,230.7 1154.8,230.7 1157.3,228.9 1159.8,227.1 1162.4,227.1 1164.9,225.5 1167.4,225.5 1169.9,223.7 1172.4,222.0 1174.9,222.0 1177.4,220.3 1179.9,218.6 1182.5,218.6 1185.0,216.9 1187.5,215.1 1190.0,215.1" fill="none" stroke="#9467bd" stroke-width="2"/>
<text x="250" y="670" class="legend" font-weight="700">Lines</text>
<line x1="250" y1="690" x2="284" y2="690" stroke="#1f77b4" stroke-width="3"/>
<text x="292" y="694" class="legend">sphere 256</text>
<line x1="430" y1="690" x2="464" y2="690" stroke="#ff7f0e" stroke-width="3"/>
<text x="472" y="694" class="legend">cube 256</text>
<line x1="610" y1="690" x2="644" y2="690" stroke="#2ca02c" stroke-width="3"/>
<text x="652" y="694" class="legend">pylians 256</text>
<line x1="250" y1="714" x2="284" y2="714" stroke="#9467bd" stroke-width="3"/>
<text x="292" y="718" class="legend">sphere 512</text>
<line x1="430" y1="714" x2="464" y2="714" stroke="#d62728" stroke-width="3"/>
<text x="472" y="718" class="legend">cube 512</text>
<line x1="610" y1="714" x2="644" y2="714" stroke="#17becf" stroke-width="3"/>
<text x="652" y="718" class="legend">pylians 512</text>
<text x="600.0" y="745" text-anchor="middle" class="note">Y-axis clipped at 15 so the low-threshold gas sphere 256 spike does not flatten the comparison.</text>
</svg>